# xmcd
#
# Track frame offsets: 
#        150
#        16457
#        33600
#        50017
#        65349
#        84535
#        97680
#        109894
#        124698
#        133175
#        146380
#        159268
#        176404
#        194049
#        211678
#        231994
#        252655
#        270082
#        280909
#        291566
#
# Disc length: 3989 seconds
#
# Revision: 0
# Processed by: cddbd v1.5.2PL0 Copyright (c) Steve Scherf et al.
# Submitted via: ExactAudioCopy v0.99pb5
#
DISCID=270f9314
DTITLE=Various Artist - Random Songs - Disc 4
DYEAR=1900
DGENRE=Polka
TTITLE0=The Proclaimers - I'm Gonna Be (500 Miles)
TTITLE1=Righteous Brothers - You've Lost That Lovin' Feelin'
TTITLE2=Righteous Brothers - Unchained Melody
TTITLE3=Righteous Brothers - You're My Soul and Inspiration
TTITLE4=Rod Stewart - Ooh La La
TTITLE5=The Romantics - What I Like About You
TTITLE6=The Ronettes - Be My Baby
TTITLE7=The Ronettes - Walking In the Rain
TTITLE8=Rudy Vallée - Life Is Just a Bowl of Cherries
TTITLE9=The Spencer Davis Group - Gimme Some Lovin'
TTITLE10=The Spencer Davis Group - I'm a Man
TTITLE11=Suzanne Vega and D.N.A. - Tom's Diner
TTITLE12=Taylor Swift - Love Story
TTITLE13=Thunderclap Newman - Something in the Air
TTITLE14=Thunderclap Newman - Something In the Air
TTITLE15=U2 - One
TTITLE16=Various Artist - Whatever Lola Wants (Lola Gets)
TTITLE17=Violent Femmes - Blister in the Sun
TTITLE18=William Daly - Untitled Church Hymn
TTITLE19=Wurlitzer Caliola Calliope - Beer Barrel Polka
EXTD=
EXTT0=
EXTT1=
EXTT2=
EXTT3=
EXTT4=
EXTT5=
EXTT6=
EXTT7=
EXTT8=
EXTT9=
EXTT10=
EXTT11=
EXTT12=
EXTT13=
EXTT14=
EXTT15=
EXTT16=
EXTT17=
EXTT18=
EXTT19=
PLAYORDER=
